<svg width="48" height="48" viewBox="0 0 48 48" fill="none" xmlns="http://www.w3.org/2000/svg">
<path fill-rule="evenodd" clip-rule="evenodd" d="M15 7.75C11.1692 7.75 7.89413 10.1552 6.70827 13.5312C3.99719 14.3392 2 16.8033 2 19.75C2 23.2237 4.77169 26.024 8.2239 26.237C8.40883 25.5242 8.70325 24.8555 9.08815 24.25H8.64706C6.05552 24.25 4 22.2106 4 19.75C4 17.6 5.56615 15.774 7.69316 15.3447C8.06376 15.2699 8.3605 14.9925 8.46005 14.6278C9.22242 11.8345 11.8495 9.75 15 9.75C17.6839 9.75 19.9839 11.2604 21.0799 13.4331C21.7285 13.2354 22.405 13.1018 23.1022 13.0398C21.783 9.92449 18.6401 7.75 15 7.75Z" fill="#EBEDED"/>
<path d="M15.5294 35C11.371 35 8 31.7168 8 27.6667C8 24.1291 10.5718 21.1766 13.9938 20.486C15.1702 16.1758 19.2043 13 24 13C29.4215 13 33.8697 17.0587 34.3161 22.2266C37.5268 22.6559 40 25.3383 40 28.5833C40 32.1272 37.0503 35 33.4118 35H15.5294Z" stroke="#EBEDED" stroke-width="2" stroke-linecap="round" stroke-linejoin="round"/>
</svg>
