<svg width="48" height="48" viewBox="0 0 48 48" fill="none" xmlns="http://www.w3.org/2000/svg">
<path d="M33 35H33.4118C37.0503 35 40 32.1272 40 28.5833C40 25.3383 37.5268 22.6559 34.3161 22.2266C33.8697 17.0587 29.4215 13 24 13C19.2043 13 15.1702 16.1758 13.9938 20.486C10.5718 21.1766 8 24.1291 8 27.6667C8 31.5434 11.0886 34.7175 15 34.9822" stroke="#EBEDED" stroke-width="2" stroke-linecap="round" stroke-linejoin="round"/>
<path fill-rule="evenodd" clip-rule="evenodd" d="M26.866 37.5622C26.3877 37.2861 26.2612 36.6098 26.5833 36.0518L28.9167 32.0104C29.2388 31.4524 29.8877 31.2239 30.366 31.5C30.8443 31.7762 30.9709 32.4524 30.6487 33.0104L28.3154 37.0518C27.9932 37.6098 27.3443 37.8383 26.866 37.5622Z" fill="#EBEDED"/>
<path d="M25.9808 33.1872C25.9396 33.0676 25.8374 32.9812 25.7157 32.9633L21.9947 32.4116L23.7017 28.4818C23.7473 28.376 23.7382 28.2533 23.6769 28.1559C23.6159 28.0588 23.511 28 23.3988 28H18.2022C18.0236 28 17.8772 28.1458 17.8708 28.3297L17.6315 35.3135C17.6255 35.488 17.7481 35.6391 17.9157 35.664L20.5027 36.048L17.0414 42.4926C16.9603 42.6443 17.0015 42.8341 17.1376 42.9357C17.1962 42.9793 17.2639 43 17.3316 43C17.4214 43 17.5105 42.9623 17.5755 42.8894L25.9127 33.5332C25.9958 33.4399 26.022 33.3068 25.9808 33.1872Z" fill="#EBEDED"/>
</svg>
