<svg viewBox="0 0 26 32" fill="none" xmlns="http://www.w3.org/2000/svg"><path d="M9.485 27.539a7.31 7.31 0 01-5.16-7.014c0-1.581.494-3.088 1.431-4.357a.626.626 0 10-1.015-.735 8.532 8.532 0 00-1.67 5.092c0 1.87.59 3.65 1.709 5.144a8.669 8.669 0 004.333 3.066.625.625 0 10.372-1.196z" fill="#EBEDED"/><path d="M25.547 14.643c0-1.193-.372-2.33-1.076-3.288l-3.966-5.888a.627.627 0 00-1.04 0l-1.67 2.481-5.17-7.672a.626.626 0 00-1.04 0l-8.87 13.17a11.564 11.564 0 00-2.263 6.9C.453 26.773 5.681 32 12.107 32c6.425 0 11.653-5.228 11.653-11.653a11.7 11.7 0 00-.101-1.533 5.55 5.55 0 001.888-4.171zm-5.562-7.705l3.447 5.117.022.031c.549.744.84 1.628.84 2.556a4.313 4.313 0 01-4.309 4.309 4.313 4.313 0 01-4.308-4.309 4.274 4.274 0 01.86-2.586l1.776-2.634.01-.015 1.662-2.469zm2.522 13.409c0 5.734-4.666 10.4-10.4 10.4-5.735 0-10.4-4.666-10.4-10.4a10.319 10.319 0 012.05-6.203l8.35-12.396 4.932 7.322-1.54 2.285a5.518 5.518 0 00-1.075 3.287 5.568 5.568 0 005.561 5.562 5.53 5.53 0 002.495-.592c.017.244.027.49.027.735z" fill="#EBEDED"/><path d="M17.776 14.49c0-.304.062-.597.184-.871a.627.627 0 00-1.145-.51 3.397 3.397 0 001.22 4.207.624.624 0 00.868-.171.627.627 0 00-.172-.87 2.146 2.146 0 01-.955-1.785zM11.81 28.407c-.154-.403-.726-.518-1.023-.203-.352.341-.163.97.321 1.057.48.105.898-.404.701-.854zm7.845-10.519c.404.28.983-.03.975-.52.009-.492-.571-.802-.975-.522-.366.23-.367.814 0 1.042z" fill="#EBEDED"/></svg>
