<svg viewBox="0 0 100 100" fill="none" xmlns="http://www.w3.org/2000/svg"><path d="M17.5 52.5c-6.498 0-11.25-5.026-11.25-11.354 0-5.528 4.018-10.14 9.365-11.22 1.838-6.735 8.142-11.697 15.635-11.697 8.471 0 12.917 5.104 14.583 9.271" stroke="#EBEDED" stroke-width="4" stroke-linecap="round" stroke-linejoin="round"/><path d="M32.353 72.917c-8.663 0-15.686-6.84-15.686-15.278 0-7.37 5.358-13.521 12.487-14.96C31.604 33.7 40.009 27.083 50 27.083c11.295 0 20.562 8.456 21.492 19.222 6.689.895 11.841 6.483 11.841 13.244 0 7.383-6.145 13.368-13.725 13.368H32.353z" stroke="#EBEDED" stroke-width="4" stroke-linecap="round" stroke-linejoin="round"/></svg>
