<svg viewBox="0 0 32 32" fill="none" xmlns="http://www.w3.org/2000/svg"><path d="M31 16c0 8.284-6.716 15-15 15-8.284 0-15-6.716-15-15C1 7.716 7.716 1 16 1c8.284 0 15 6.716 15 15z" stroke="#EBEDED" stroke-width="2"/><path d="M16 2.436a.517.517 0 00-.516.516V5.79a.516.516 0 001.032 0V2.952A.516.516 0 0016 2.436zM23.22 9.297a.514.514 0 00.364-.151l2.008-2.006a.518.518 0 00-.365-.881.516.516 0 00-.366.151l-2.006 2.007a.516.516 0 00.364.881v-.001zM8.416 22.855L6.409 24.86a.516.516 0 10.73.73l2.007-2.007a.516.516 0 10-.73-.73zM29.048 15.484H26.21a.516.516 0 100 1.032h2.838a.516.516 0 000-1.032zM5.79 15.484H2.952a.516.516 0 100 1.032H5.79a.516.516 0 000-1.032zM23.584 22.855a.516.516 0 00-.73.73l2.008 2.006a.514.514 0 00.73 0 .517.517 0 000-.73l-2.008-2.006zM7.139 6.409a.516.516 0 00-.73.73l2.007 2.006a.516.516 0 00.73-.73L7.139 6.41zM21.66 27.756l-2.25-2.25a10.086 10.086 0 01-6.82 0l-2.25 2.25a13.038 13.038 0 0011.32 0zM17.315 16.365L16 9.42l-1.315 6.945a2.57 2.57 0 102.63 0z" fill="#EBEDED"/></svg>
