<svg viewBox="0 0 32 32" fill="none" xmlns="http://www.w3.org/2000/svg"><path d="M23.374 6.956a5.014 5.014 0 00-5.009 5.01.556.556 0 101.113 0 3.9 3.9 0 013.896-3.896 3.9 3.9 0 013.896 3.895 3.9 3.9 0 01-3.896 3.896H3.339a.557.557 0 000 1.113h20.035a5.015 5.015 0 005.009-5.009 5.014 5.014 0 00-5.01-5.009z" fill="#EBEDED"/><path d="M12.522 2.783a4.875 4.875 0 00-4.87 4.87.696.696 0 001.391 0 3.482 3.482 0 013.479-3.48A3.482 3.482 0 0116 7.654a3.482 3.482 0 01-3.478 3.477H.696a.696.696 0 000 1.392h11.826a4.875 4.875 0 004.87-4.87 4.875 4.875 0 00-4.87-4.87zM21.333 19.478H.61a.61.61 0 000 1.22h20.723a3.051 3.051 0 013.048 3.047 3.051 3.051 0 01-3.048 3.047 3.051 3.051 0 01-3.047-3.047.61.61 0 10-1.22 0 4.272 4.272 0 004.267 4.267 4.272 4.272 0 004.267-4.267 4.272 4.272 0 00-4.267-4.267z" fill="#EBEDED"/></svg>
